<?xml version="1.0" encoding="UTF-8"?>
<svg xmlns="http://www.w3.org/2000/svg" xmlns:xlink="http://www.w3.org/1999/xlink" width="144pt" height="144pt" viewBox="0 0 144 144" version="1.1">
<g id="surface22328112">
<path style=" stroke:none;fill-rule:nonzero;fill:rgb(100%,100%,100%);fill-opacity:1;" d="M 137.289062 105.605469 C 131.898438 95.902344 118.011719 84.246094 112.277344 79.171875 C 110.710938 77.785156 110.539062 75.382812 111.96875 73.84375 C 122.910156 62.089844 131.660156 48.578125 134.671875 40.414062 C 136.003906 36.808594 133.25 33 129.375 33 L 118.117188 33 C 114.40625 33 112.234375 34.332031 111.199219 36.453125 C 102.105469 55.085938 94.304688 63.148438 88.84375 67.863281 C 85.789062 70.503906 81.019531 68.316406 81.019531 64.300781 C 81.019531 56.558594 81.019531 46.554688 81.019531 39.460938 C 81.019531 36.019531 78.207031 33.234375 74.734375 33.234375 L 54.167969 33 C 51.578125 33 50.101562 35.929688 51.652344 37.984375 L 55.050781 42.859375 C 56.328125 44.550781 57.019531 46.605469 57.019531 48.714844 L 57 70.667969 C 57 74.488281 52.371094 76.351562 49.621094 73.675781 C 40.324219 64.621094 32.257812 46.132812 29.355469 37.292969 C 28.515625 34.734375 26.117188 33.007812 23.398438 33 L 12.308594 32.972656 C 8.148438 32.972656 5.105469 36.917969 6.238281 40.890625 C 16.371094 76.460938 37.164062 110.300781 74.21875 113.96875 C 77.871094 114.328125 81.019531 111.390625 81.019531 107.75 L 81.019531 96.214844 C 81.019531 92.902344 83.617188 90.058594 86.953125 89.976562 C 87.070312 89.972656 87.1875 89.972656 87.304688 89.972656 C 97.105469 89.972656 108.082031 104.238281 111.921875 110.910156 C 113.023438 112.828125 115.089844 114 117.320312 114 L 132.238281 114 C 136.59375 114 139.386719 109.382812 137.289062 105.605469 Z M 137.289062 105.605469 "/>
</g>
</svg>
