<?xml version="1.0" encoding="UTF-8"?>
<svg xmlns="http://www.w3.org/2000/svg" xmlns:xlink="http://www.w3.org/1999/xlink" width="208pt" height="208pt" viewBox="0 0 208 208" version="1.1">
<g id="surface22322673">
<path style=" stroke:none;fill-rule:nonzero;fill:rgb(100%,100%,100%);fill-opacity:1;" d="M 60.375 0 C 27.125 0 0 27.125 0 60.375 L 0 147.625 C 0 180.875 27.125 208 60.375 208 L 147.625 208 C 180.875 208 208 180.875 208 147.625 L 208 60.375 C 208 27.125 180.875 0 147.625 0 Z M 60.375 16 L 147.625 16 C 172.21875 16 192 35.75 192 60.375 L 192 147.625 C 192 172.21875 172.25 192 147.625 192 L 60.375 192 C 35.78125 192 16 172.25 16 147.625 L 16 60.375 C 16 35.78125 35.75 16 60.375 16 Z M 164 32 C 157.375 32 152 37.375 152 44 C 152 50.625 157.375 56 164 56 C 170.625 56 176 50.625 176 44 C 176 37.375 170.625 32 164 32 Z M 104 48 C 73.15625 48 48 73.15625 48 104 C 48 134.84375 73.15625 160 104 160 C 134.84375 160 160 134.84375 160 104 C 160 73.15625 134.84375 48 104 48 Z M 104 64 C 126.1875 64 144 81.8125 144 104 C 144 126.1875 126.1875 144 104 144 C 81.8125 144 64 126.1875 64 104 C 64 81.8125 81.8125 64 104 64 Z M 104 64 "/>
</g>
</svg>
