<?xml version="1.0" encoding="UTF-8"?>
<svg xmlns="http://www.w3.org/2000/svg" xmlns:xlink="http://www.w3.org/1999/xlink" width="240pt" height="240pt" viewBox="0 0 240 240" version="1.1">
<g id="surface22324238">
<path style=" stroke:none;fill-rule:nonzero;fill:rgb(100%,100%,100%);fill-opacity:1;" d="M 72 200 L 32 200 L 32 80 L 72 80 Z M 52.007812 64 C 40.945312 64 32 55.03125 32 43.992188 C 32 32.953125 40.960938 24 52.007812 24 C 63.03125 24 72 32.96875 72 43.992188 C 72 55.03125 63.03125 64 52.007812 64 Z M 216 200 L 177.542969 200 L 177.542969 141.601562 C 177.542969 127.671875 177.28125 109.761719 157.550781 109.761719 C 137.527344 109.761719 134.449219 124.929688 134.449219 140.59375 L 134.449219 200 L 96 200 L 96 79.910156 L 132.910156 79.910156 L 132.910156 96.320312 L 133.433594 96.320312 C 138.566406 86.878906 151.121094 76.929688 169.839844 76.929688 C 208.800781 76.929688 216 101.800781 216 134.136719 Z M 216 200 "/>
</g>
</svg>
